<svg id="visual" viewBox="0 0 960 540" width="960" height="540" xmlns="http://www.w3.org/2000/svg" xmlns:xlink="http://www.w3.org/1999/xlink" version="1.1"><rect x="0" y="0" width="960" height="540" fill="#F8F8F8"></rect><path d="M0 319L51 319L51 318L101 318L101 297L152 297L152 338L202 338L202 271L253 271L253 259L303 259L303 268L354 268L354 295L404 295L404 327L455 327L455 310L505 310L505 320L556 320L556 330L606 330L606 288L657 288L657 332L707 332L707 302L758 302L758 279L808 279L808 333L859 333L859 299L909 299L909 325L960 325L960 302L960 541L960 541L909 541L909 541L859 541L859 541L808 541L808 541L758 541L758 541L707 541L707 541L657 541L657 541L606 541L606 541L556 541L556 541L505 541L505 541L455 541L455 541L404 541L404 541L354 541L354 541L303 541L303 541L253 541L253 541L202 541L202 541L152 541L152 541L101 541L101 541L51 541L51 541L0 541Z" fill="#5587b8"></path><path d="M0 295L51 295L51 321L101 321L101 289L152 289L152 327L202 327L202 358L253 358L253 337L303 337L303 322L354 322L354 340L404 340L404 319L455 319L455 311L505 311L505 327L556 327L556 296L606 296L606 289L657 289L657 339L707 339L707 346L758 346L758 358L808 358L808 318L859 318L859 291L909 291L909 354L960 354L960 345L960 541L960 541L909 541L909 541L859 541L859 541L808 541L808 541L758 541L758 541L707 541L707 541L657 541L657 541L606 541L606 541L556 541L556 541L505 541L505 541L455 541L455 541L404 541L404 541L354 541L354 541L303 541L303 541L253 541L253 541L202 541L202 541L152 541L152 541L101 541L101 541L51 541L51 541L0 541Z" fill="#718abe"></path><path d="M0 349L51 349L51 322L101 322L101 351L152 351L152 368L202 368L202 358L253 358L253 350L303 350L303 386L354 386L354 322L404 322L404 345L455 345L455 357L505 357L505 341L556 341L556 362L606 362L606 351L657 351L657 360L707 360L707 355L758 355L758 327L808 327L808 355L859 355L859 327L909 327L909 333L960 333L960 364L960 541L960 541L909 541L909 541L859 541L859 541L808 541L808 541L758 541L758 541L707 541L707 541L657 541L657 541L606 541L606 541L556 541L556 541L505 541L505 541L455 541L455 541L404 541L404 541L354 541L354 541L303 541L303 541L253 541L253 541L202 541L202 541L152 541L152 541L101 541L101 541L51 541L51 541L0 541Z" fill="#8a8cc0"></path><path d="M0 360L51 360L51 364L101 364L101 355L152 355L152 350L202 350L202 347L253 347L253 387L303 387L303 381L354 381L354 371L404 371L404 388L455 388L455 391L505 391L505 346L556 346L556 401L606 401L606 350L657 350L657 390L707 390L707 384L758 384L758 377L808 377L808 362L859 362L859 371L909 371L909 394L960 394L960 400L960 541L960 541L909 541L909 541L859 541L859 541L808 541L808 541L758 541L758 541L707 541L707 541L657 541L657 541L606 541L606 541L556 541L556 541L505 541L505 541L455 541L455 541L404 541L404 541L354 541L354 541L303 541L303 541L253 541L253 541L202 541L202 541L152 541L152 541L101 541L101 541L51 541L51 541L0 541Z" fill="#a18fc1"></path><path d="M0 386L51 386L51 430L101 430L101 384L152 384L152 403L202 403L202 379L253 379L253 425L303 425L303 379L354 379L354 414L404 414L404 406L455 406L455 421L505 421L505 400L556 400L556 413L606 413L606 409L657 409L657 431L707 431L707 410L758 410L758 413L808 413L808 399L859 399L859 397L909 397L909 413L960 413L960 379L960 541L960 541L909 541L909 541L859 541L859 541L808 541L808 541L758 541L758 541L707 541L707 541L657 541L657 541L606 541L606 541L556 541L556 541L505 541L505 541L455 541L455 541L404 541L404 541L354 541L354 541L303 541L303 541L253 541L253 541L202 541L202 541L152 541L152 541L101 541L101 541L51 541L51 541L0 541Z" fill="#b592bf"></path><path d="M0 411L51 411L51 425L101 425L101 413L152 413L152 416L202 416L202 424L253 424L253 404L303 404L303 450L354 450L354 436L404 436L404 436L455 436L455 439L505 439L505 438L556 438L556 430L606 430L606 417L657 417L657 421L707 421L707 420L758 420L758 408L808 408L808 450L859 450L859 444L909 444L909 405L960 405L960 432L960 541L960 541L909 541L909 541L859 541L859 541L808 541L808 541L758 541L758 541L707 541L707 541L657 541L657 541L606 541L606 541L556 541L556 541L505 541L505 541L455 541L455 541L404 541L404 541L354 541L354 541L303 541L303 541L253 541L253 541L202 541L202 541L152 541L152 541L101 541L101 541L51 541L51 541L0 541Z" fill="#c696bc"></path><path d="M0 438L51 438L51 443L101 443L101 461L152 461L152 463L202 463L202 456L253 456L253 460L303 460L303 439L354 439L354 465L404 465L404 473L455 473L455 451L505 451L505 444L556 444L556 458L606 458L606 449L657 449L657 435L707 435L707 464L758 464L758 467L808 467L808 458L859 458L859 475L909 475L909 451L960 451L960 434L960 541L960 541L909 541L909 541L859 541L859 541L808 541L808 541L758 541L758 541L707 541L707 541L657 541L657 541L606 541L606 541L556 541L556 541L505 541L505 541L455 541L455 541L404 541L404 541L354 541L354 541L303 541L303 541L253 541L253 541L202 541L202 541L152 541L152 541L101 541L101 541L51 541L51 541L0 541Z" fill="#d59bb8"></path><path d="M0 477L51 477L51 477L101 477L101 471L152 471L152 481L202 481L202 462L253 462L253 493L303 493L303 479L354 479L354 467L404 467L404 475L455 475L455 476L505 476L505 478L556 478L556 480L606 480L606 495L657 495L657 476L707 476L707 471L758 471L758 475L808 475L808 483L859 483L859 484L909 484L909 475L960 475L960 483L960 541L960 541L909 541L909 541L859 541L859 541L808 541L808 541L758 541L758 541L707 541L707 541L657 541L657 541L606 541L606 541L556 541L556 541L505 541L505 541L455 541L455 541L404 541L404 541L354 541L354 541L303 541L303 541L253 541L253 541L202 541L202 541L152 541L152 541L101 541L101 541L51 541L51 541L0 541Z" fill="#e0a1b3"></path><path d="M0 504L51 504L51 502L101 502L101 500L152 500L152 496L202 496L202 499L253 499L253 513L303 513L303 504L354 504L354 502L404 502L404 503L455 503L455 496L505 496L505 510L556 510L556 513L606 513L606 517L657 517L657 509L707 509L707 514L758 514L758 521L808 521L808 506L859 506L859 509L909 509L909 520L960 520L960 522L960 541L960 541L909 541L909 541L859 541L859 541L808 541L808 541L758 541L758 541L707 541L707 541L657 541L657 541L606 541L606 541L556 541L556 541L505 541L505 541L455 541L455 541L404 541L404 541L354 541L354 541L303 541L303 541L253 541L253 541L202 541L202 541L152 541L152 541L101 541L101 541L51 541L51 541L0 541Z" fill="#e9a8af"></path></svg>